<?xml version="1.0" encoding="UTF-8"?>
<svg version="1.1" xmlns="http://www.w3.org/2000/svg" width="75" height="89">
<path d="M0 0 C0.0154612 1.345177 0.0154612 1.345177 0.03123474 2.7175293 C0.12943592 11.19159741 0.23198135 19.66559963 0.33933926 28.13955688 C0.39437421 32.4955201 0.44776177 36.85149023 0.49731445 41.20751953 C0.54524629 45.41563378 0.59759695 49.62367249 0.65294075 53.83169556 C0.67323452 55.43273015 0.69196786 57.03378535 0.70907402 58.63485718 C0.73340815 60.88685503 0.76341908 63.13871401 0.79467773 65.390625 C0.81799416 67.3092334 0.81799416 67.3092334 0.84178162 69.26660156 C1.01234671 73.29133901 1.26714676 77.03584656 2 81 C4.91765 82.9451 6.62537285 83.45276317 10 84 C10 85.65 10 87.3 10 89 C-12.11 89 -34.22 89 -57 89 C-57 87.35 -57 85.7 -57 84 C-55.96939453 83.83564453 -55.96939453 83.83564453 -54.91796875 83.66796875 C-54.01691406 83.50941406 -53.11585937 83.35085937 -52.1875 83.1875 C-51.29417969 83.03667969 -50.40085937 82.88585937 -49.48046875 82.73046875 C-46.76353184 81.93036292 -45.70779042 81.22497616 -44 79 C-42.91542818 75.74628455 -42.87953143 73.3910068 -42.88647461 69.96801758 C-42.88658791 68.10642754 -42.88658791 68.10642754 -42.88670349 66.20722961 C-42.89181009 64.85299642 -42.89702609 63.49876363 -42.90234375 62.14453125 C-42.90420917 60.75876415 -42.90563249 59.37299639 -42.90663147 57.98722839 C-42.9104469 54.3425209 -42.92026887 50.69785335 -42.93133545 47.05316162 C-42.9415705 43.33297262 -42.94613358 39.61277715 -42.95117188 35.89257812 C-42.96189202 28.59503389 -42.97895675 21.29752254 -43 14 C-45.23799705 12.88100148 -46.57852274 12.83522693 -49.0625 12.75390625 C-50.25746094 12.70459961 -50.25746094 12.70459961 -51.4765625 12.65429688 C-53.15871678 12.59310396 -54.84101747 12.53581137 -56.5234375 12.48242188 C-57.32007813 12.44826172 -58.11671875 12.41410156 -58.9375 12.37890625 C-60.03384766 12.34132202 -60.03384766 12.34132202 -61.15234375 12.30297852 C-63 12 -63 12 -65 10 C-65.125 7.375 -65.125 7.375 -65 5 C-63.88778076 4.95512451 -62.77556152 4.91024902 -61.62963867 4.86401367 C-57.40385961 4.6905352 -53.17882918 4.50236392 -48.95385742 4.31030273 C-47.14380303 4.22995172 -45.33357941 4.15330562 -43.52319336 4.08081055 C-32.95331851 3.6547244 -22.62932078 2.86947942 -12.20536804 1.00663757 C-11.11238152 0.81253044 -11.11238152 0.81253044 -9.99731445 0.61450195 C-9.36759232 0.4963765 -8.73787018 0.37825104 -8.08906555 0.25654602 C-5.38382313 -0.07566911 -2.72245697 -0.03801939 0 0 Z M-25 13 C-26.30079213 15.60158426 -26.13417831 17.51093202 -26.14526367 20.42431641 C-26.15164352 21.55954742 -26.15802338 22.69477844 -26.16459656 23.8644104 C-26.16570938 25.09767059 -26.1668222 26.33093079 -26.16796875 27.6015625 C-26.17129715 28.86712982 -26.17462555 30.13269714 -26.17805481 31.43661499 C-26.18312744 34.12167866 -26.18589457 36.80664122 -26.18530273 39.49169922 C-26.18520161 42.91448272 -26.19880002 46.33705643 -26.21607494 49.75979042 C-26.2299521 53.04037301 -26.22928631 56.32095457 -26.23046875 59.6015625 C-26.23765427 60.82267731 -26.24483978 62.04379211 -26.25224304 63.3019104 C-26.59945716 73.94775118 -26.59945716 73.94775118 -22 83 C-19.44539786 83.07272562 -19.44539786 83.07272562 -17 82 C-15.06242312 78.28853254 -14.74755631 75.15008318 -14.74121094 71.00390625 C-14.73490662 69.81917725 -14.72860229 68.63444824 -14.72210693 67.41381836 C-14.7261554 66.1428833 -14.73020386 64.87194824 -14.734375 63.5625 C-14.73150482 61.59325562 -14.73150482 61.59325562 -14.72857666 59.58422852 C-14.72563432 56.81033604 -14.72989424 54.03657273 -14.73925781 51.26269531 C-14.75065195 47.71525287 -14.74408769 44.16811311 -14.73211288 40.62068176 C-14.72312951 37.22626387 -14.72942762 33.83192648 -14.734375 30.4375 C-14.73032654 29.16656494 -14.72627808 27.89562988 -14.72210693 26.58618164 C-14.72841125 25.40145264 -14.73471558 24.21672363 -14.74121094 22.99609375 C-14.74280212 21.95638428 -14.74439331 20.9166748 -14.74603271 19.84545898 C-15.01073233 16.87975457 -15.75491509 14.68961204 -17 12 C-19.87137415 12 -22.2303041 12.27113266 -25 13 Z " fill="#C7BCA5" transform="translate(65,0)"/>
</svg>
